<svg id="Layer_6" data-name="Layer 6" xmlns="http://www.w3.org/2000/svg" viewBox="0 0 850.39 850.48"><defs><style>.cls-1{fill:#fbd801;}</style></defs><path class="cls-1" d="M784.57,425.2q0-16.05-1.38-31.76l48.23-19.28L820,316.92l-51.86.66a356.33,356.33,0,0,0-24.36-58.76L781,222.59l-32.42-48.52L700.8,194.56a360.56,360.56,0,0,0-44.93-44.94l20.48-47.75L627.82,69.45,591.6,106.6a354.51,354.51,0,0,0-58.75-24.36l.65-51.87L476.26,19,457,67.22q-15.72-1.38-31.8-1.39t-31.76,1.38L374.16,19,316.92,30.37l.66,51.86a355.43,355.43,0,0,0-58.76,24.35L222.59,69.43l-48.52,32.43,20.49,47.73a361.93,361.93,0,0,0-44.94,44.93l-47.75-20.47L69.45,222.57l37.15,36.22a356.23,356.23,0,0,0-24.36,58.75l-51.87-.64L19,374.14,67.22,393.4Q66.28,404.13,66,415H355.34a66.3,66.3,0,0,1,1.5-7.21L299.23,384,307,365.29l58,24a67.36,67.36,0,0,1,4.16-5.9l-84.78-84.77,14.3-14.3,85.16,85.17c1.89-1.32,3.84-2.56,5.86-3.7L365.29,307,384,299.23l24.51,59.2a66.06,66.06,0,0,1,6.62-1.25V236.11H435.3V357.18q3.38.48,6.62,1.24l24.52-59.19L485.11,307,460.73,365.8a65.73,65.73,0,0,1,5.85,3.72l85.18-85.18,14.29,14.3-84.78,84.77a63.36,63.36,0,0,1,4.16,5.9l58-24L551.16,384l-57.61,23.86a65.09,65.09,0,0,1,1.52,7.27H614.29V435.3H495.06a66.9,66.9,0,0,1-1.51,7.27l57.61,23.87-7.73,18.67-58-24a65.3,65.3,0,0,1-4.16,5.9l84.78,84.78-14.29,14.29-85.17-85.17c-1.89,1.32-3.84,2.56-5.86,3.7l24.38,58.85-18.67,7.73L441.91,492a65.86,65.86,0,0,1-6.61,1.25V614.29H415.09V493.21c-2.24-.32-4.45-.73-6.61-1.24L384,551.16l-18.67-7.73,24.37-58.85a65.63,65.63,0,0,1-5.85-3.71l-85.17,85.18-14.3-14.29L369.12,467a67.36,67.36,0,0,1-4.16-5.9l-58,24-7.74-18.67,57.61-23.87a65.69,65.69,0,0,1-1.53-7.33H66q.3,10.93,1.23,21.72L19,476.24l11.39,57.23,51.85-.66a356.33,356.33,0,0,0,24.36,58.76L69.43,627.81l32.43,48.51,47.74-20.48a359.81,359.81,0,0,0,44.93,44.93l-20.48,47.76,48.52,32.41,36.22-37.15a355.4,355.4,0,0,0,58.75,24.37L316.9,820l57.24,11.38,19.26-48.23q15.72,1.38,31.8,1.39T457,783.19l19.28,48.23L533.47,820l-.66-51.86a355.47,355.47,0,0,0,58.76-24.36L627.81,781l48.51-32.42-20.48-47.75a359.81,359.81,0,0,0,44.93-44.93l47.76,20.49,32.41-48.53L743.79,591.6a355.4,355.4,0,0,0,24.37-58.75l51.87.65,11.38-57.24L783.18,457Q784.56,441.28,784.57,425.2Z"/><path class="cls-1" d="M423.9,469.87a44.69,44.69,0,1,0-43.38-46A44.69,44.69,0,0,0,423.9,469.87Zm-10.71-56.68h24v24h-24Z"/></svg>